<svg width="174" height="47" viewBox="0 0 174 47" fill="none" xmlns="http://www.w3.org/2000/svg">
<path d="M2.6 40V11.2H7.72V40H2.6ZM19.7916 40.48C18.0849 40.48 16.6849 40.2133 15.5916 39.68C14.4982 39.12 13.6849 38.3867 13.1516 37.48C12.6182 36.5733 12.3516 35.5733 12.3516 34.48C12.3516 32.64 13.0716 31.1467 14.5116 30C15.9516 28.8533 18.1116 28.28 20.9916 28.28H26.0316V27.8C26.0316 26.44 25.6449 25.44 24.8716 24.8C24.0982 24.16 23.1382 23.84 21.9916 23.84C20.9516 23.84 20.0449 24.0933 19.2716 24.6C18.4982 25.08 18.0182 25.8 17.8316 26.76H12.8316C12.9649 25.32 13.4449 24.0667 14.2716 23C15.1249 21.9333 16.2182 21.12 17.5516 20.56C18.8849 19.9733 20.3782 19.68 22.0316 19.68C24.8582 19.68 27.0849 20.3867 28.7116 21.8C30.3382 23.2133 31.1516 25.2133 31.1516 27.8V40H26.7916L26.3116 36.8C25.7249 37.8667 24.8982 38.7467 23.8316 39.44C22.7916 40.1333 21.4449 40.48 19.7916 40.48ZM20.9516 36.48C22.4182 36.48 23.5516 36 24.3516 35.04C25.1782 34.08 25.6982 32.8933 25.9116 31.48H21.5516C20.1916 31.48 19.2182 31.7333 18.6316 32.24C18.0449 32.72 17.7516 33.32 17.7516 34.04C17.7516 34.8133 18.0449 35.4133 18.6316 35.84C19.2182 36.2667 19.9916 36.48 20.9516 36.48ZM36.0375 40V20.16H40.5575L40.9575 23.52C41.5708 22.3467 42.4508 21.4133 43.5975 20.72C44.7708 20.0267 46.1442 19.68 47.7175 19.68C50.1708 19.68 52.0775 20.4533 53.4375 22C54.7975 23.5467 55.4775 25.8133 55.4775 28.8V40H50.3575V29.28C50.3575 27.5733 50.0108 26.2667 49.3175 25.36C48.6242 24.4533 47.5442 24 46.0775 24C44.6375 24 43.4508 24.5067 42.5175 25.52C41.6108 26.5333 41.1575 27.9467 41.1575 29.76V40H36.0375ZM70.0934 40.48C68.0668 40.48 66.2801 40.04 64.7334 39.16C63.1868 38.28 61.9601 37.0533 61.0534 35.48C60.1734 33.9067 59.7334 32.1067 59.7334 30.08C59.7334 28.0533 60.1734 26.2533 61.0534 24.68C61.9601 23.1067 63.1868 21.88 64.7334 21C66.2801 20.12 68.0668 19.68 70.0934 19.68C72.6268 19.68 74.7601 20.3467 76.4934 21.68C78.2268 22.9867 79.3334 24.8 79.8134 27.12H74.4134C74.1468 26.16 73.6134 25.4133 72.8134 24.88C72.0401 24.32 71.1201 24.04 70.0534 24.04C68.6401 24.04 67.4401 24.5733 66.4534 25.64C65.4668 26.7067 64.9734 28.1867 64.9734 30.08C64.9734 31.9733 65.4668 33.4533 66.4534 34.52C67.4401 35.5867 68.6401 36.12 70.0534 36.12C71.1201 36.12 72.0401 35.8533 72.8134 35.32C73.6134 34.7867 74.1468 34.0267 74.4134 33.04H79.8134C79.3334 35.28 78.2268 37.08 76.4934 38.44C74.7601 39.8 72.6268 40.48 70.0934 40.48ZM93.9978 40.48C91.9978 40.48 90.2245 40.0533 88.6778 39.2C87.1311 38.3467 85.9178 37.1467 85.0378 35.6C84.1578 34.0533 83.7178 32.2667 83.7178 30.24C83.7178 28.1867 84.1445 26.36 84.9978 24.76C85.8778 23.16 87.0778 21.92 88.5978 21.04C90.1445 20.1333 91.9578 19.68 94.0378 19.68C95.9845 19.68 97.7045 20.1067 99.1978 20.96C100.691 21.8133 101.851 22.9867 102.678 24.48C103.531 25.9467 103.958 27.5867 103.958 29.4C103.958 29.6933 103.944 30 103.918 30.32C103.918 30.64 103.904 30.9733 103.878 31.32H88.7978C88.9045 32.8667 89.4378 34.08 90.3978 34.96C91.3845 35.84 92.5711 36.28 93.9578 36.28C94.9978 36.28 95.8645 36.0533 96.5578 35.6C97.2778 35.12 97.8111 34.5067 98.1578 33.76H103.358C102.984 35.0133 102.358 36.16 101.478 37.2C100.624 38.2133 99.5578 39.0133 98.2778 39.6C97.0245 40.1867 95.5978 40.48 93.9978 40.48ZM94.0378 23.84C92.7845 23.84 91.6778 24.2 90.7178 24.92C89.7578 25.6133 89.1445 26.68 88.8778 28.12H98.7578C98.6778 26.8133 98.1978 25.7733 97.3178 25C96.4378 24.2267 95.3445 23.84 94.0378 23.84ZM108.264 40V11.2H113.384V40H108.264ZM128.136 40.48C126.216 40.48 124.482 40.04 122.936 39.16C121.416 38.28 120.202 37.0667 119.296 35.52C118.416 33.9467 117.976 32.1333 117.976 30.08C117.976 28.0267 118.429 26.2267 119.336 24.68C120.242 23.1067 121.456 21.88 122.976 21C124.522 20.12 126.256 19.68 128.176 19.68C130.069 19.68 131.776 20.12 133.296 21C134.842 21.88 136.056 23.1067 136.936 24.68C137.842 26.2267 138.296 28.0267 138.296 30.08C138.296 32.1333 137.842 33.9467 136.936 35.52C136.056 37.0667 134.842 38.28 133.296 39.16C131.749 40.04 130.029 40.48 128.136 40.48ZM128.136 36.04C129.469 36.04 130.629 35.5467 131.616 34.56C132.602 33.5467 133.096 32.0533 133.096 30.08C133.096 28.1067 132.602 26.6267 131.616 25.64C130.629 24.6267 129.482 24.12 128.176 24.12C126.816 24.12 125.642 24.6267 124.656 25.64C123.696 26.6267 123.216 28.1067 123.216 30.08C123.216 32.0533 123.696 33.5467 124.656 34.56C125.642 35.5467 126.802 36.04 128.136 36.04ZM150.932 40C148.852 40 147.186 39.4933 145.932 38.48C144.679 37.4667 144.052 35.6667 144.052 33.08V24.44H140.652V20.16H144.052L144.652 14.84H149.172V20.16H154.532V24.44H149.172V33.12C149.172 34.08 149.372 34.7467 149.772 35.12C150.199 35.4667 150.919 35.64 151.932 35.64H154.412V40H150.932Z" fill="#1E1E1E"/>
<circle cx="128" cy="31" r="4" fill="#516ED7"/>
<circle cx="129.5" cy="29.5" r="1.5" fill="white"/>
</svg>
